<svg width="34" height="34" viewBox="0 0 34 34" fill="none" xmlns="http://www.w3.org/2000/svg">
<rect width="34" height="34" rx="5" fill="#FFFDFD"/>
<path d="M11 14V20C11 22 12 23 14 23H20C22 23 23 22 23 20V17C23 16.4 22.6 16 22 16C21.4 16 21 15.6 21 15V14C21 12 20 11 18 11H14C12 11 11 12 11 14Z" stroke="#004E6B" stroke-width="1.5" stroke-miterlimit="10"/>
<path d="M15 15H17M15 19H19" stroke="#004E6B" stroke-width="1.5" stroke-miterlimit="10" stroke-linecap="round" stroke-linejoin="round"/>
<path d="M20 27H14C9 27 7 25 7 20V14C7 9 9 7 14 7H20C25 7 27 9 27 14V20C27 25 25 27 20 27Z" stroke="#004E6B" stroke-width="1.5" stroke-linecap="round" stroke-linejoin="round"/>
</svg>
