<svg width="34" height="34" viewBox="0 0 34 34" fill="none" xmlns="http://www.w3.org/2000/svg">
<rect width="34" height="34" rx="5" fill="#FFFDFD"/>
<path d="M26.9292 11.761L23.5592 25.291C23.3192 26.301 22.4192 27.001 21.3792 27.001H8.23915C6.72915 27.001 5.64917 25.5209 6.09917 24.0709L10.3092 10.551C10.5992 9.61103 11.4692 8.96094 12.4492 8.96094H24.7492C25.6992 8.96094 26.4892 9.54094 26.8192 10.3409C27.0092 10.7709 27.0492 11.261 26.9292 11.761Z" stroke="#004E6B" stroke-width="1.5" stroke-miterlimit="10"/>
<path d="M21 27H25.78C27.07 27 28.08 25.91 27.99 24.62L27 11" stroke="#004E6B" stroke-width="1.5" stroke-miterlimit="10" stroke-linecap="round" stroke-linejoin="round"/>
<path d="M14.6797 11.3785L15.7197 7.05859" stroke="#004E6B" stroke-width="1.5" stroke-miterlimit="10" stroke-linecap="round" stroke-linejoin="round"/>
<path d="M21.3809 11.3907L22.3209 7.05078" stroke="#004E6B" stroke-width="1.5" stroke-miterlimit="10" stroke-linecap="round" stroke-linejoin="round"/>
<path d="M12.6992 17H20.6992" stroke="#004E6B" stroke-width="1.5" stroke-miterlimit="10" stroke-linecap="round" stroke-linejoin="round"/>
<path d="M11.6992 21H19.6992" stroke="#004E6B" stroke-width="1.5" stroke-miterlimit="10" stroke-linecap="round" stroke-linejoin="round"/>
</svg>
