<svg width="34" height="34" viewBox="0 0 34 34" fill="none" xmlns="http://www.w3.org/2000/svg">
<rect width="34" height="34" rx="5" fill="#FFFDFD"/>
<path d="M23.4277 6.13216C23.5817 5.96565 23.8395 5.95491 24.006 6.10888C24.1725 6.26285 24.1832 6.52067 24.0293 6.68717L20.6777 10.3145L20.6723 10.3217C20.2623 10.8176 19.9812 11.2759 19.8559 11.6949C19.7449 12.0655 19.761 12.4021 19.9257 12.6957C20.0134 12.8533 19.9848 13.0466 19.8684 13.1737L18.2768 14.8961C18.121 14.726 17.9975 14.5881 17.9151 14.4986C17.8775 14.4485 17.8345 14.4002 17.7898 14.3536L17.7862 14.3572C17.7647 14.3339 17.7414 14.3124 17.7182 14.2909L19.0788 12.8175C18.9195 12.3913 18.9213 11.9384 19.0681 11.4568C19.2257 10.934 19.5605 10.3772 20.0421 9.79707C20.0528 9.78275 20.0618 9.76843 20.0743 9.75589L23.4241 6.12857L23.4277 6.13216ZM16.2286 15.8486C16.0782 15.6803 16.0925 15.4207 16.2608 15.2703C16.4291 15.1199 16.6887 15.1342 16.8391 15.3025C18.5238 17.1896 23.7321 22.7738 25.1751 24.8614C27.0783 27.5559 24.1313 28.4045 23.1538 27.4234C20.7117 25.0619 15.5267 19.0408 13.2476 16.4877C12.4276 16.8351 11.6308 16.8888 10.8305 16.6596C9.96937 16.4143 9.12609 15.8396 8.27029 14.957L8.25955 14.9462C7.60785 14.2587 7.09759 13.5802 6.72877 12.9088C6.351 12.2177 6.12004 11.5337 6.03768 10.8552C5.94995 10.1247 6.01799 9.44437 6.21493 8.84101C6.44589 8.13202 6.85589 7.53224 7.393 7.08643C7.9337 6.63883 8.59793 6.34879 9.33915 6.25927C9.95504 6.18587 10.6264 6.24853 11.3211 6.47591C12.2825 6.78923 13.4033 7.56804 14.3325 8.56708C15.0183 9.30293 15.6055 10.1641 15.9546 11.0503C16.3181 11.9742 16.4291 12.9302 16.1372 13.8254C15.9654 14.3554 15.6538 14.8531 15.1704 15.3025C15.0039 15.4565 14.7461 15.4457 14.5921 15.281C14.4382 15.1145 14.4489 14.8567 14.6136 14.7027C14.9878 14.3536 15.2277 13.9723 15.3584 13.5694C15.584 12.8765 15.4891 12.1085 15.1919 11.3529C14.8804 10.5616 14.3522 9.78812 13.7328 9.12389C12.8949 8.22512 11.9012 7.52866 11.0633 7.25473C10.4886 7.06853 9.93893 7.01482 9.43583 7.07569C8.85217 7.1473 8.32937 7.3711 7.91221 7.72023C7.49326 8.06935 7.17278 8.54022 6.98838 9.10061C6.82903 9.58939 6.77353 10.1516 6.84693 10.7585C6.91676 11.3314 7.11549 11.9169 7.44134 12.5149C7.78331 13.129 8.25239 13.7502 8.85575 14.3858L8.85933 14.3912C9.61487 15.17 10.34 15.6713 11.0579 15.8754C11.7365 16.0688 12.4276 15.9936 13.1491 15.6337C13.3138 15.5388 13.5269 15.5711 13.6576 15.7179C15.8812 18.2083 21.29 24.4764 23.6855 26.7986C24.7257 27.2229 25.3022 26.7001 24.8045 25.7781C24.0293 24.3386 17.369 17.1305 16.2286 15.8486ZM14.0693 19.449L8.84858 25.0977C8.83784 25.1084 8.82889 25.1192 8.81636 25.1299C8.05365 25.9535 9.4036 27.1531 10.2415 26.351L15.3119 20.8634L15.8562 21.4811L10.8252 26.9257C10.8144 26.9382 10.8037 26.949 10.7894 26.9615C10.4886 27.2139 10.186 27.3787 9.87985 27.4467C9.56474 27.5183 9.255 27.4861 8.9578 27.3464C8.90767 27.3267 8.86112 27.3017 8.81994 27.2641L8.09841 26.5963C8.08767 26.5855 8.07693 26.5766 8.06619 26.564C7.78689 26.2418 7.6544 25.898 7.69021 25.5346C7.72422 25.1908 7.90684 24.856 8.25239 24.5337L13.5233 18.8296L14.0693 19.449ZM19.5408 16.2872L19.8505 15.9524C20.0045 15.7859 20.2641 15.7752 20.4288 15.9291C20.5935 16.0831 20.606 16.3409 20.4521 16.5074L20.094 16.8942L19.5408 16.2872ZM24.7007 7.32992C24.8546 7.16342 25.1124 7.15268 25.2789 7.30665C25.4455 7.46062 25.4562 7.71844 25.3022 7.88494L22.3642 11.0665C22.2102 11.233 21.9524 11.2437 21.7859 11.0897C21.6194 10.9358 21.6087 10.6779 21.7626 10.5114L24.7007 7.32992ZM25.9718 8.50621C26.1258 8.3397 26.3836 8.32896 26.5501 8.48293C26.7166 8.6369 26.7274 8.89472 26.5734 9.06123L23.6372 12.2409C23.4832 12.4075 23.2254 12.4182 23.0589 12.2642C22.8924 12.1103 22.8816 11.8524 23.0356 11.6859L25.9718 8.50621ZM27.2896 9.72904C27.4435 9.56253 27.7013 9.55179 27.8678 9.70576C28.0343 9.85974 28.0451 10.1193 27.8911 10.2841L24.5395 13.9132C24.527 13.9257 24.5145 13.9364 24.5019 13.949C23.7392 14.683 23.0105 15.1074 22.3141 15.2273C21.5585 15.358 20.8656 15.1432 20.2301 14.5881C20.06 14.4395 20.0439 14.1799 20.1907 14.0116C20.3393 13.8416 20.5989 13.8254 20.7672 13.9723C21.2058 14.3554 21.6749 14.5058 22.1708 14.4181C22.7044 14.3267 23.2916 13.974 23.9326 13.3564L23.9362 13.3528L27.286 9.72725L27.2896 9.72904Z" fill="#004E6B" stroke="#004E6B" stroke-width="0.4"/>
</svg>
