<svg width="34" height="34" viewBox="0 0 34 34" fill="none" xmlns="http://www.w3.org/2000/svg">
<rect width="34" height="34" rx="5" fill="#FFFDFD"/>
<path d="M14 27H20C25 27 27 25 27 20V14C27 9 25 7 20 7H14C9 7 7 9 7 14V20C7 25 9 27 14 27Z" stroke="#004E6B" stroke-width="1.5" stroke-linecap="round" stroke-linejoin="round"/>
<path d="M14 15C15.1046 15 16 14.1046 16 13C16 11.8954 15.1046 11 14 11C12.8954 11 12 11.8954 12 13C12 14.1046 12.8954 15 14 15Z" stroke="#004E6B" stroke-width="1.5" stroke-linecap="round" stroke-linejoin="round"/>
<path d="M7.66992 23.9486L12.5999 20.6386C13.3899 20.1086 14.5299 20.1686 15.2399 20.7786L15.5699 21.0686C16.3499 21.7386 17.6099 21.7386 18.3899 21.0686L22.5499 17.4986C23.3299 16.8286 24.5899 16.8286 25.3699 17.4986L26.9999 18.8986" stroke="#004E6B" stroke-width="1.5" stroke-linecap="round" stroke-linejoin="round"/>
</svg>
