<svg width="34" height="34" viewBox="0 0 34 34" fill="none" xmlns="http://www.w3.org/2000/svg">
<rect width="34" height="34" rx="5" fill="#FFFDFD"/>
<path d="M12 17C8 17 8 18.79 8 21V22C8 24.76 8 27 13 27H21C25 27 26 24.76 26 22V21C26 18.79 26 17 22 17C21 17 20.72 17.21 20.2 17.6L19.18 18.68C18 19.94 16 19.94 14.81 18.68L13.8 17.6C13.28 17.21 13 17 12 17Z" stroke="#004E6B" stroke-width="1.5" stroke-miterlimit="10" stroke-linecap="round" stroke-linejoin="round"/>
<path d="M24 17V11C24 8.79 24 7 20 7H14C10 7 10 8.79 10 11V17" stroke="#004E6B" stroke-width="1.5" stroke-miterlimit="10" stroke-linecap="round" stroke-linejoin="round"/>
<path d="M15.5508 14.2305H18.8808" stroke="#004E6B" stroke-width="1.5" stroke-linecap="round" stroke-linejoin="round"/>
<path d="M14.7188 11.2305H19.7188" stroke="#004E6B" stroke-width="1.5" stroke-linecap="round" stroke-linejoin="round"/>
</svg>
